<?xml version="1.0" encoding="UTF-8" standalone="no"?>
<!DOCTYPE svg PUBLIC "-//W3C//DTD SVG 1.1//EN" "http://www.w3.org/Graphics/SVG/1.1/DTD/svg11.dtd">
<svg width="100%" height="100%" viewBox="0 0 500 135" version="1.1" xmlns="http://www.w3.org/2000/svg" xmlns:xlink="http://www.w3.org/1999/xlink" xml:space="preserve" xmlns:serif="http://www.serif.com/" style="fill-rule:evenodd;clip-rule:evenodd;stroke-linejoin:round;stroke-miterlimit:2;">
    <g transform="matrix(2.7625,0,0,2.7625,145.518,100.765)">
        <path d="M0,-25.39L4.425,-25.39L4.425,-4.026L17.773,-4.026L17.773,0L0,0L0,-25.39Z" style="fill-rule:nonzero;"/>
    </g>
    <g transform="matrix(2.7625,0,0,2.7625,227.481,57.2813)">
        <path d="M0,12.368C0.888,12.368 1.687,12.205 2.396,11.878C3.105,11.552 3.712,11.111 4.217,10.555C4.721,9.998 5.105,9.352 5.37,8.614C5.634,7.876 5.767,7.097 5.767,6.274L5.767,6.202C5.767,5.356 5.622,4.557 5.334,3.808C5.045,3.059 4.644,2.406 4.127,1.849C3.61,1.293 2.997,0.852 2.289,0.525C1.579,0.199 0.792,0.035 -0.073,0.035C-0.937,0.035 -1.725,0.199 -2.434,0.525C-3.143,0.852 -3.75,1.287 -4.255,1.831C-4.759,2.375 -5.144,3.022 -5.408,3.772C-5.671,4.521 -5.804,5.307 -5.804,6.129L-5.804,6.202C-5.804,7.049 -5.66,7.84 -5.372,8.577C-5.083,9.316 -4.682,9.969 -4.164,10.536C-3.647,11.105 -3.035,11.552 -2.326,11.878C-1.617,12.205 -0.841,12.368 0,12.368M-0.073,16.177C-1.524,16.177 -2.873,15.916 -4.117,15.396C-5.363,14.877 -6.438,14.169 -7.345,13.275C-8.252,12.38 -8.959,11.328 -9.467,10.119C-9.975,8.91 -10.229,7.629 -10.229,6.274L-10.229,6.202C-10.229,4.824 -9.969,3.53 -9.449,2.321C-8.93,1.112 -8.216,0.054 -7.309,-0.853C-6.402,-1.76 -5.327,-2.479 -4.081,-3.011C-2.836,-3.543 -1.476,-3.809 0,-3.809C1.475,-3.809 2.834,-3.549 4.08,-3.029C5.326,-2.509 6.401,-1.796 7.308,-0.889C8.215,0.017 8.922,1.069 9.43,2.266C9.938,3.463 10.192,4.751 10.192,6.129L10.192,6.202C10.192,7.556 9.932,8.838 9.412,10.047C8.892,11.256 8.179,12.314 7.272,13.221C6.365,14.127 5.283,14.847 4.025,15.378C2.768,15.91 1.402,16.177 -0.073,16.177" style="fill-rule:nonzero;"/>
    </g>
    <g transform="matrix(2.7625,0,0,2.7625,288.502,77.4207)">
        <path d="M0,3.228C0.75,3.228 1.47,3.101 2.158,2.847C2.848,2.593 3.446,2.23 3.954,1.759C4.461,1.287 4.866,0.731 5.169,0.09C5.471,-0.55 5.622,-1.257 5.622,-2.031L5.622,-2.105C5.622,-2.902 5.471,-3.621 5.169,-4.262C4.866,-4.902 4.461,-5.46 3.954,-5.931C3.446,-6.402 2.848,-6.765 2.158,-7.019C1.47,-7.273 0.75,-7.4 0,-7.4C-0.774,-7.4 -1.487,-7.273 -2.14,-7.019C-2.792,-6.765 -3.368,-6.408 -3.863,-5.949C-4.358,-5.489 -4.746,-4.939 -5.023,-4.298C-5.302,-3.658 -5.441,-2.939 -5.441,-2.141L-5.441,-2.068C-5.441,-1.27 -5.295,-0.55 -5.005,0.09C-4.715,0.731 -4.329,1.287 -3.844,1.759C-3.361,2.23 -2.787,2.593 -2.122,2.847C-1.457,3.101 -0.75,3.228 0,3.228M-0.362,14.327C-3.555,14.327 -6.408,13.573 -8.923,12.065L-7.29,8.777C-6.274,9.406 -5.211,9.902 -4.098,10.264C-2.986,10.627 -1.777,10.809 -0.471,10.809C1.488,10.809 2.986,10.311 4.026,9.314C5.066,8.318 5.586,6.848 5.586,4.904L5.586,3.409C4.788,4.449 3.857,5.295 2.793,5.948C1.729,6.601 0.411,6.927 -1.161,6.927C-2.297,6.927 -3.386,6.722 -4.425,6.311C-5.465,5.9 -6.39,5.313 -7.2,4.552C-8.01,3.79 -8.657,2.853 -9.14,1.741C-9.624,0.628 -9.865,-0.629 -9.865,-2.031L-9.865,-2.105C-9.865,-3.506 -9.624,-4.77 -9.14,-5.895C-8.657,-7.019 -8.01,-7.962 -7.2,-8.724C-6.39,-9.485 -5.459,-10.071 -4.407,-10.483C-3.355,-10.894 -2.273,-11.099 -1.161,-11.099C0.459,-11.099 1.796,-10.779 2.848,-10.138C3.899,-9.498 4.8,-8.73 5.55,-7.835L5.55,-10.701L9.938,-10.701L9.938,4.534C9.938,7.726 9.128,10.131 7.508,11.751C6.638,12.622 5.544,13.269 4.226,13.692C2.908,14.115 1.378,14.327 -0.362,14.327" style="fill-rule:nonzero;"/>
    </g>
    <g transform="matrix(2.7625,0,0,2.7625,-148.117,-2785.64)">
        <rect x="172.271" y="1025.7" width="4.425" height="19.151"/>
    </g>
    <g transform="matrix(2.7625,0,0,2.7625,351.725,99.6651)">
        <path d="M0,-18.753L4.425,-18.753L4.425,-15.748C4.739,-16.211 5.083,-16.645 5.457,-17.047C5.83,-17.449 6.264,-17.809 6.758,-18.127C7.252,-18.444 7.795,-18.694 8.386,-18.877C8.977,-19.06 9.646,-19.151 10.394,-19.151C12.563,-19.151 14.239,-18.486 15.421,-17.157C16.602,-15.827 17.193,-14.037 17.193,-11.789L17.193,0.398L12.768,0.398L12.768,-10.457C12.768,-11.953 12.414,-13.105 11.707,-13.913C11,-14.721 9.999,-15.126 8.705,-15.126C7.434,-15.126 6.403,-14.709 5.612,-13.877C4.821,-13.045 4.425,-11.88 4.425,-10.386L4.425,0.398L0,0.398L0,-18.753Z" style="fill-rule:nonzero;"/>
    </g>
    <g transform="matrix(2.7625,0,0,2.7625,-148.117,-2804.7)">
        <path d="M172.326,1032.78L176.7,1032.78L176.7,1051.71L172.326,1051.71L172.326,1032.78ZM172.147,1025.75L176.843,1025.75L176.843,1029.87L172.147,1029.87L172.147,1025.75Z" style="fill-rule:nonzero;"/>
    </g>
    <g transform="matrix(46.2351,0,0,-46.2351,41.5794,43.5039)">
        <path d="M0.157,0.135C0.059,0.033 0.003,-0.1 0,-0.24C0,-0.254 0.005,-0.268 0.015,-0.279C0.025,-0.289 0.038,-0.295 0.052,-0.295C0.082,-0.295 0.106,-0.271 0.107,-0.242C0.112,-0.01 0.303,0.187 0.525,0.187C0.68,0.187 0.827,0.091 0.899,-0.058C0.905,-0.071 0.916,-0.08 0.929,-0.085C0.943,-0.09 0.957,-0.089 0.97,-0.082C0.997,-0.069 1.008,-0.037 0.995,-0.01C0.905,0.175 0.72,0.295 0.525,0.295C0.387,0.295 0.257,0.238 0.157,0.135Z" style="fill:url(#_Linear1);fill-rule:nonzero;"/>
    </g>
    <g transform="matrix(48.5733,0,0,-48.5733,41.5724,79.4638)">
        <path d="M0.898,0.456L0.898,-0.003C0.898,-0.078 0.877,-0.152 0.838,-0.216L0.836,-0.218C0.763,-0.335 0.637,-0.405 0.5,-0.405C0.28,-0.405 0.102,-0.224 0.102,-0.003L0.102,0.252C0.102,0.28 0.079,0.303 0.051,0.303C0.023,0.303 0,0.28 0,0.252L0,-0.003C0,-0.281 0.224,-0.508 0.5,-0.508C0.673,-0.508 0.831,-0.419 0.924,-0.271C0.974,-0.191 1,-0.098 1,-0.003L1,0.456C1,0.485 0.977,0.508 0.949,0.508C0.921,0.508 0.898,0.485 0.898,0.456Z" style="fill:url(#_Linear2);fill-rule:nonzero;"/>
    </g>
    <g transform="matrix(67.8988,0,0,-67.8988,29.1072,82.1212)">
        <path d="M0.022,0.503C0.014,0.497 0.008,0.488 0.007,0.479C0.002,0.45 0,0.42 0,0.391L0,0.037C0,-0.264 0.243,-0.51 0.541,-0.51C0.724,-0.51 0.894,-0.417 0.994,-0.263C1.005,-0.246 1,-0.223 0.984,-0.212C0.976,-0.206 0.966,-0.204 0.956,-0.206C0.947,-0.208 0.939,-0.214 0.933,-0.222C0.846,-0.356 0.7,-0.436 0.541,-0.436C0.283,-0.436 0.073,-0.223 0.073,0.037L0.073,0.391C0.073,0.416 0.075,0.442 0.079,0.467C0.082,0.487 0.068,0.506 0.048,0.509C0.047,0.51 0.045,0.51 0.043,0.51C0.035,0.51 0.028,0.507 0.022,0.503Z" style="fill:url(#_Linear3);fill-rule:nonzero;"/>
    </g>
    <g transform="matrix(67.6762,0,0,-67.6762,34.9372,52.2353)">
        <path d="M0.006,0.262C-0.005,0.245 0,0.222 0.017,0.211C0.025,0.205 0.034,0.204 0.044,0.206C0.054,0.208 0.062,0.213 0.067,0.222C0.156,0.36 0.302,0.443 0.457,0.443C0.712,0.442 0.927,0.217 0.927,-0.049L0.927,-0.404C0.927,-0.426 0.925,-0.449 0.923,-0.47C0.92,-0.491 0.934,-0.509 0.954,-0.512C0.973,-0.515 0.992,-0.5 0.995,-0.481C0.998,-0.456 1,-0.43 1,-0.404L1,-0.049C1,0.096 0.942,0.24 0.842,0.346C0.739,0.456 0.602,0.516 0.458,0.517C0.277,0.517 0.109,0.422 0.006,0.262Z" style="fill:url(#_Linear4);fill-rule:nonzero;"/>
    </g>
    <g transform="matrix(98.0756,0,0,-98.0756,16.642,39.5618)">
        <path d="M0.147,0.199C0.053,0.1 0,-0.033 0,-0.167L0,-0.33C0,-0.344 0.011,-0.356 0.025,-0.356C0.039,-0.356 0.05,-0.344 0.05,-0.33L0.05,-0.167C0.05,0.088 0.257,0.305 0.502,0.305L0.503,0.305C0.725,0.304 0.921,0.122 0.95,-0.11C0.951,-0.117 0.954,-0.123 0.959,-0.127C0.965,-0.131 0.971,-0.133 0.978,-0.132C0.992,-0.13 1.002,-0.118 1,-0.104C0.985,0.019 0.926,0.134 0.836,0.22C0.743,0.307 0.625,0.356 0.503,0.356C0.369,0.356 0.242,0.3 0.147,0.199Z" style="fill:url(#_Linear5);fill-rule:nonzero;"/>
    </g>
    <g transform="matrix(98.1896,0,0,-98.1896,16.8915,94.7195)">
        <path d="M0.95,0.327L0.95,0.154C0.95,-0.097 0.747,-0.302 0.499,-0.302C0.267,-0.301 0.074,-0.126 0.05,0.106C0.049,0.113 0.046,0.119 0.041,0.124C0.036,0.127 0.031,0.129 0.025,0.129C0.024,0.129 0.023,0.129 0.023,0.129L0.023,0.129C0.016,0.128 0.01,0.125 0.006,0.12C0.001,0.115 -0.001,0.108 0,0.101C0.013,-0.023 0.07,-0.137 0.162,-0.221C0.254,-0.306 0.374,-0.352 0.498,-0.352C0.775,-0.352 1,-0.125 1,0.154L1,0.327C1,0.341 0.989,0.352 0.975,0.352C0.961,0.352 0.95,0.341 0.95,0.327Z" style="fill:url(#_Linear6);fill-rule:nonzero;"/>
    </g>
    <g transform="matrix(2.7625,0,0,2.7625,69.9878,65.0093)">
        <path d="M0,1.445L-0.036,1.481C-0.036,1.481 -0.261,1.655 -0.263,1.968C-0.264,2.281 -0.259,4.231 -0.259,4.231L-1.573,4.231L-1.577,4.231L-2.889,4.231C-2.889,4.231 -2.886,2.281 -2.888,1.968C-2.889,1.655 -3.115,1.481 -3.115,1.481L-3.15,1.445C-3.674,0.97 -3.964,0.315 -3.964,-0.372C-3.964,-1.702 -2.893,-2.784 -1.575,-2.786C-0.257,-2.784 0.814,-1.702 0.814,-0.372C0.814,0.315 0.524,0.97 0,1.445M-1.573,-4.526L-1.575,-4.526L-1.577,-4.526C-3.841,-4.523 -5.681,-2.66 -5.681,-0.372C-5.681,0.639 -5.316,1.614 -4.654,2.376L-4.599,2.439L-4.599,5.101C-4.599,5.581 -4.213,5.971 -3.739,5.971L0.589,5.971C1.063,5.971 1.448,5.581 1.448,5.101L1.448,2.439L1.503,2.376C2.166,1.614 2.531,0.639 2.531,-0.372C2.531,-2.66 0.69,-4.523 -1.573,-4.526" style="fill:rgb(80,90,239);fill-rule:nonzero;"/>
    </g>
    <g transform="matrix(2.74131,0,0,2.74131,-143.891,-443.374)">
        <text x="199.477px" y="198.397px" style="font-family:'ArialMT', 'Arial', sans-serif;font-size:36.329px;">I<tspan x="207.869px " y="198.397px ">D</tspan></text>
    </g>
    <defs>
        <linearGradient id="_Linear1" x1="0" y1="0" x2="1" y2="0" gradientUnits="userSpaceOnUse" gradientTransform="matrix(1,0,0,-1,0,1.40052e-05)"><stop offset="0" style="stop-color:rgb(19,183,228);stop-opacity:1"/><stop offset="1" style="stop-color:rgb(80,90,239);stop-opacity:1"/></linearGradient>
        <linearGradient id="_Linear2" x1="0" y1="0" x2="1" y2="0" gradientUnits="userSpaceOnUse" gradientTransform="matrix(1,0,0,-1,0,-2.33292e-05)"><stop offset="0" style="stop-color:rgb(19,183,228);stop-opacity:1"/><stop offset="1" style="stop-color:rgb(80,90,239);stop-opacity:1"/></linearGradient>
        <linearGradient id="_Linear3" x1="0" y1="0" x2="1" y2="0" gradientUnits="userSpaceOnUse" gradientTransform="matrix(1,0,0,-1,0,-1.96267e-05)"><stop offset="0" style="stop-color:rgb(19,183,228);stop-opacity:1"/><stop offset="1" style="stop-color:rgb(80,90,239);stop-opacity:1"/></linearGradient>
        <linearGradient id="_Linear4" x1="0" y1="0" x2="1" y2="0" gradientUnits="userSpaceOnUse" gradientTransform="matrix(1,0,0,-1,0,0.00222824)"><stop offset="0" style="stop-color:rgb(19,183,228);stop-opacity:1"/><stop offset="1" style="stop-color:rgb(80,90,239);stop-opacity:1"/></linearGradient>
        <linearGradient id="_Linear5" x1="0" y1="0" x2="1" y2="0" gradientUnits="userSpaceOnUse" gradientTransform="matrix(1,0,0,-1,0,6.70938e-06)"><stop offset="0" style="stop-color:rgb(19,183,228);stop-opacity:1"/><stop offset="1" style="stop-color:rgb(80,90,239);stop-opacity:1"/></linearGradient>
        <linearGradient id="_Linear6" x1="0" y1="0" x2="1" y2="0" gradientUnits="userSpaceOnUse" gradientTransform="matrix(1,0,0,-1,0,-1.6211e-05)"><stop offset="0" style="stop-color:rgb(19,183,228);stop-opacity:1"/><stop offset="1" style="stop-color:rgb(80,90,239);stop-opacity:1"/></linearGradient>
    </defs>
</svg>
